<svg width="63" height="59" viewBox="0 0 63 59" fill="none" xmlns="http://www.w3.org/2000/svg">
<path d="M55.8633 11.8227H47.9883V7.13672C47.9883 3.20156 44.7867 0 40.8516 0H22.1484C18.2133 0 15.0117 3.20156 15.0117 7.13672V11.8227H7.13672C3.20156 11.8227 0 15.0243 0 18.9594V50.9414C0 54.8766 3.20156 58.0781 7.13672 58.0781H55.8633C59.7984 58.0781 63 54.8766 63 50.9414V18.9594C63 15.0243 59.7984 11.8227 55.8633 11.8227ZM22.1484 2.46094H40.8516C43.0039 2.46094 44.8202 3.92323 45.3618 5.90625H17.6382C18.1798 3.92323 19.9961 2.46094 22.1484 2.46094ZM2.46094 18.9594C2.46094 16.3812 4.55852 14.2836 7.13672 14.2836H25.9785C26.658 14.2836 27.209 13.7328 27.209 13.0532C27.209 12.3736 26.658 11.8227 25.9785 11.8227H17.4727V8.36719H45.5273V11.8227H37.0527C36.3731 11.8227 35.8223 12.3737 35.8223 13.0532C35.8223 13.7326 36.3731 14.2836 37.0527 14.2836H55.8633C58.4415 14.2836 60.5391 16.3812 60.5391 18.9594V22.8834C60.5391 28.6995 55.8073 33.4312 49.9911 33.4312H37.4219V30.8155C37.4219 29.2706 36.165 28.0138 34.6201 28.0138H28.411C26.8662 28.0138 25.6093 29.2708 25.6093 30.8155V33.4312H13.0089C7.1927 33.4311 2.46094 28.6993 2.46094 22.8834V18.9594ZM28.0703 35.892H34.9609V37.6523C34.9609 39.5522 33.4153 41.0977 31.5156 41.0977C29.6158 41.0977 28.0703 39.5522 28.0703 37.6523V35.892ZM28.0703 33.4311V30.8154C28.0703 30.6275 28.2231 30.4745 28.4112 30.4745H34.6202C34.8081 30.4745 34.9611 30.6274 34.9611 30.8154V33.4311H28.0703ZM60.5391 50.9414C60.5391 53.5196 58.4415 55.6172 55.8633 55.6172H7.13672C4.55852 55.6172 2.46094 53.5196 2.46094 50.9414V30.4879C4.82602 33.7591 8.67271 35.892 13.0089 35.892H25.6094V37.6523C25.6094 40.9091 28.2588 43.5586 31.5156 43.5586C34.7724 43.5586 37.4219 40.9091 37.4219 37.6523V35.892H49.9911C54.3272 35.892 58.174 33.7591 60.5391 30.4879V50.9414Z" fill="#B3B3B3"/>
<path d="M31.5161 14.2832C31.8397 14.2832 32.1572 14.1527 32.3861 13.9226C32.6148 13.6938 32.7466 13.3763 32.7466 13.0527C32.7466 12.7291 32.6149 12.4117 32.3861 12.1828C32.1572 11.9539 31.8397 11.8223 31.5161 11.8223C31.1925 11.8223 30.875 11.9538 30.6449 12.1828C30.4161 12.4117 30.2856 12.7291 30.2856 13.0527C30.2856 13.3763 30.4161 13.6938 30.6449 13.9226C30.875 14.1528 31.1925 14.2832 31.5161 14.2832Z" fill="#B3B3B3"/>
</svg>
