<svg width="47" height="57" viewBox="0 0 47 57" fill="none" xmlns="http://www.w3.org/2000/svg">
<path d="M4.70021 15.0402H9.39991C9.91927 15.0402 10.3401 14.6189 10.3401 14.1C10.3401 13.5811 9.91927 13.1598 9.39991 13.1598H4.70021C4.18084 13.1598 3.76001 13.5811 3.76001 14.1C3.76001 14.6189 4.18084 15.0402 4.70021 15.0402Z" fill="#B3B3B3"/>
<path d="M16.9202 15.0402H36.66C37.179 15.0402 37.5998 14.6189 37.5998 14.1C37.5998 13.5811 37.179 13.1598 36.66 13.1598H16.9202C16.4008 13.1598 15.98 13.5811 15.98 14.1C15.98 14.6189 16.4008 15.0402 16.9202 15.0402Z" fill="#B3B3B3"/>
<path d="M16.9202 18.8H36.66C37.179 18.8 37.5998 18.3792 37.5998 17.8598C37.5998 17.3409 37.179 16.92 36.66 16.92H16.9202C16.4008 16.92 15.98 17.3409 15.98 17.8598C15.98 18.3792 16.4008 18.8 16.9202 18.8Z" fill="#B3B3B3"/>
<path d="M4.70021 22.5601H9.39991C9.91927 22.5601 10.3401 22.1393 10.3401 21.6199C10.3401 21.101 9.91927 20.6802 9.39991 20.6802H4.70021C4.18084 20.6802 3.76001 21.101 3.76001 21.6199C3.76001 22.1393 4.18084 22.5601 4.70021 22.5601Z" fill="#B3B3B3"/>
<path d="M16.9202 22.5601H36.66C37.179 22.5601 37.5998 22.1393 37.5998 21.6199C37.5998 21.101 37.179 20.6802 36.66 20.6802H16.9202C16.4008 20.6802 15.98 21.101 15.98 21.6199C15.98 22.1393 16.4008 22.5601 16.9202 22.5601Z" fill="#B3B3B3"/>
<path d="M16.9202 26.32H36.66C37.179 26.32 37.5998 25.8992 37.5998 25.3798C37.5998 24.8609 37.179 24.4401 36.66 24.4401H16.9202C16.4008 24.4401 15.98 24.8609 15.98 25.3798C15.98 25.8992 16.4008 26.32 16.9202 26.32Z" fill="#B3B3B3"/>
<path d="M4.70021 30.0799H9.39991C9.91927 30.0799 10.3401 29.6591 10.3401 29.1401C10.3401 28.6208 9.91927 28.2 9.39991 28.2H4.70021C4.18084 28.2 3.76001 28.6208 3.76001 29.1401C3.76001 29.6591 4.18084 30.0799 4.70021 30.0799Z" fill="#B3B3B3"/>
<path d="M16.9202 30.0799H36.66C37.179 30.0799 37.5998 29.6591 37.5998 29.1401C37.5998 28.6208 37.179 28.2 36.66 28.2H16.9202C16.4008 28.2 15.98 28.6208 15.98 29.1401C15.98 29.6591 16.4008 30.0799 16.9202 30.0799Z" fill="#B3B3B3"/>
<path d="M16.9202 33.8398H36.66C37.179 33.8398 37.5998 33.419 37.5998 32.9C37.5998 32.3807 37.179 31.9598 36.66 31.9598H16.9202C16.4008 31.9598 15.98 32.3807 15.98 32.9C15.98 33.419 16.4008 33.8398 16.9202 33.8398Z" fill="#B3B3B3"/>
<path d="M21.6199 48.88H17.8599C17.341 48.88 16.9202 49.3008 16.9202 49.8198C16.9202 50.3391 17.341 50.76 17.8599 50.76H19.7399V51.6997C19.7399 52.2191 20.1607 52.6399 20.6801 52.6399C21.199 52.6399 21.6199 52.2191 21.6199 51.6997V50.76C23.1775 50.76 24.44 49.4975 24.44 47.9398C24.44 46.3826 23.1775 45.1201 21.6199 45.1201H19.7399C19.221 45.1201 18.8001 44.6992 18.8001 44.1799C18.8001 43.6609 19.221 43.2401 19.7399 43.2401H23.4998C24.0192 43.2401 24.44 42.8188 24.44 42.2999C24.44 41.781 24.0192 41.3597 23.4998 41.3597H21.6199V40.4199C21.6199 39.9006 21.199 39.4797 20.6801 39.4797C20.1607 39.4797 19.7399 39.9006 19.7399 40.4199V41.3597C18.1827 41.3597 16.9202 42.6226 16.9202 44.1799C16.9202 45.7375 18.1827 47 19.7399 47H21.6199C22.1392 47 22.5601 47.4209 22.5601 47.9398C22.5601 48.4592 22.1392 48.88 21.6199 48.88Z" fill="#B3B3B3"/>
<path d="M2.82016 56.3998H38.5399C40.0972 56.3998 41.3597 55.1373 41.3597 53.5797V9.39983H45.12C46.1583 9.39983 47 8.55817 47 7.51986V4.70013C46.9966 2.10544 44.8941 0.00301208 42.2999 0H2.82016C1.26249 0 0 1.26249 0 2.82016V53.5797C0 55.1373 1.26249 56.3998 2.82016 56.3998ZM20.6801 37.5997C24.1018 37.5997 27.1866 39.6613 28.496 42.8223C29.8053 45.9836 29.0816 49.6222 26.662 52.0418C24.2425 54.4613 20.6039 55.1851 17.4425 53.8757C14.2811 52.5663 12.22 49.4815 12.22 46.0598C12.2252 41.3898 16.0096 37.6049 20.6801 37.5997ZM42.2999 1.87997C43.8571 1.87997 45.12 3.14246 45.12 4.70013V7.51986H7.51986V4.70013C7.51642 3.67947 7.17778 2.68892 6.55557 1.87997H42.2999ZM1.87997 2.82016C1.87997 2.3008 2.3008 1.87997 2.82016 1.87997C4.37741 1.87997 5.6399 3.14246 5.6399 4.70013V7.51986C5.6399 8.55817 6.48156 9.39983 7.51986 9.39983H39.4797V53.5797C39.4797 54.099 39.0589 54.5199 38.5399 54.5199H26.6065C28.9714 52.8697 30.5377 50.3051 30.9258 47.4479C31.314 44.5908 30.4891 41.7013 28.65 39.4797H36.66C37.1789 39.4797 37.5997 39.0589 37.5997 38.5399C37.5997 38.0206 37.1789 37.5997 36.66 37.5997H26.6065C23.054 35.0954 18.3104 35.0954 14.7579 37.5997H4.70013C4.18076 37.5997 3.75993 38.0206 3.75993 38.5399C3.75993 39.0589 4.18076 39.4797 4.70013 39.4797H12.7097C10.8714 41.7018 10.047 44.5916 10.436 47.4488C10.8254 50.3064 12.3925 52.8705 14.7579 54.5199H2.82016C2.3008 54.5199 1.87997 54.099 1.87997 53.5797V2.82016Z" fill="#B3B3B3"/>
</svg>
