<svg width="47" height="47" viewBox="0 0 47 47" fill="none" xmlns="http://www.w3.org/2000/svg">
<path d="M46.4262 43.6571L33.0606 30.2915C35.6495 27.0936 37.2083 23.03 37.2083 18.6042C37.2083 8.34645 28.8619 0 18.6041 0C8.34636 0 0 8.34636 0 18.6041C0 28.8619 8.34645 37.2083 18.6042 37.2083C23.03 37.2083 27.0936 35.6495 30.2915 33.0606L43.6571 46.4262C44.039 46.8081 44.5403 47 45.0417 47C45.5431 47 46.0444 46.8081 46.4263 46.4262C47.1919 45.6605 47.1919 44.4228 46.4262 43.6571ZM18.6042 33.2916C10.5045 33.2916 3.9167 26.7038 3.9167 18.6041C3.9167 10.5044 10.5045 3.91661 18.6042 3.91661C26.7039 3.91661 33.2917 10.5044 33.2917 18.6041C33.2917 26.7038 26.7038 33.2916 18.6042 33.2916Z" fill="white"/>
</svg>
