<svg width="57" height="57" viewBox="0 0 57 57" fill="none" xmlns="http://www.w3.org/2000/svg">
<path d="M45.0484 19.3065C46.2454 19.3065 47.2567 18.5351 47.6373 17.4677H57V2.75806H47.6373C47.2567 1.69069 46.2454 0.919355 45.0484 0.919355H41.371C40.1032 0.919355 39.0432 1.78447 38.7223 2.95205L36.3789 1.39006C35.0155 0.480823 33.4287 0 31.7895 0H17.4677C16.4537 0 15.629 0.824661 15.629 1.83871C15.629 2.51168 15.8239 3.13408 16.1402 3.67742H11.9516C10.431 3.67742 9.19355 4.91487 9.19355 6.43548C9.19355 6.7591 9.25974 7.06616 9.36271 7.35484H8.27419C6.75358 7.35484 5.51613 8.59229 5.51613 10.1129C5.51613 11.6335 6.75358 12.871 8.27419 12.871H9.36271C9.25974 13.1596 9.19355 13.4667 9.19355 13.7903C9.19355 15.0618 10.0623 16.1246 11.2345 16.4417C11.1067 16.7598 11.0323 17.1046 11.0323 17.4677C11.0323 18.9884 12.2697 20.2258 13.7903 20.2258H31.7895C33.4287 20.2258 35.0155 19.745 36.3789 18.8357L38.7214 17.2738C39.0432 18.4413 40.1032 19.3065 41.371 19.3065H42.2903V21.238C40.1951 21.6655 38.6129 23.5217 38.6129 25.7419C38.6129 27.9622 40.1951 29.8184 42.2903 30.2459V32.2703C40.1951 32.6978 38.6129 34.554 38.6129 36.7742C38.6129 38.8069 39.9478 40.515 41.7801 41.12C41.28 41.826 40.4608 42.2903 39.5323 42.2903H36.7742C36.7742 40.7697 35.5367 39.5323 34.0161 39.5323H32.9276C32.547 38.4649 31.5357 37.6936 30.3387 37.6936H26.4213C24.2884 32.8292 19.4333 29.4194 13.7903 29.4194C6.18634 29.4194 0 35.6057 0 43.2097C0 50.8137 6.18634 57 13.7903 57C19.4333 57 24.2884 53.5901 26.4213 48.7258H30.3387C31.5357 48.7258 32.547 47.9545 32.9276 46.8871H34.0161C35.5367 46.8871 36.7742 45.6496 36.7742 44.129H39.5323C41.4353 44.129 43.0709 42.966 43.7686 41.314C46.0376 41.0345 47.8065 39.1176 47.8065 36.7742C47.8065 34.5549 46.2242 32.6978 44.129 32.2703V30.2459C46.2242 29.8184 47.8065 27.9622 47.8065 25.7419C47.8065 23.5217 46.2242 21.6655 44.129 21.238V19.3065H45.0484ZM13.7903 55.1613C7.20039 55.1613 1.83871 49.7996 1.83871 43.2097C1.83871 36.6197 7.20039 31.2581 13.7903 31.2581C20.3803 31.2581 25.7419 36.6197 25.7419 43.2097C25.7419 49.7996 20.3803 55.1613 13.7903 55.1613ZM31.2581 45.9677C31.2581 46.4752 30.8462 46.8871 30.3387 46.8871H27.0676C27.3931 45.714 27.5806 44.4848 27.5806 43.2097C27.5806 41.9345 27.3931 40.7054 27.0676 39.5323H30.3387C30.8462 39.5323 31.2581 39.9441 31.2581 40.4516V45.9677ZM34.9355 44.129C34.9355 44.6365 34.5236 45.0484 34.0161 45.0484H33.0968V41.371H34.0161C34.5236 41.371 34.9355 41.7828 34.9355 42.2903V44.129ZM45.9677 36.7742C45.9677 37.9712 45.1964 38.9825 44.129 39.3631V37.6936H42.2903V39.3631C41.223 38.9825 40.4516 37.9712 40.4516 36.7742C40.4516 35.5772 41.223 34.5659 42.2903 34.1853V35.8548H44.129V34.1853C45.1964 34.5659 45.9677 35.5772 45.9677 36.7742ZM45.9677 25.7419C45.9677 26.9389 45.1964 27.9502 44.129 28.3308V26.6613H42.2903V28.3308C41.223 27.9502 40.4516 26.9389 40.4516 25.7419C40.4516 24.5449 41.223 23.5336 42.2903 23.153V24.8226H44.129V23.153C45.1964 23.5336 45.9677 24.5449 45.9677 25.7419ZM55.1613 15.629H47.8065V4.59677H55.1613V15.629ZM7.35484 10.1129C7.35484 9.60634 7.76671 9.19355 8.27419 9.19355H11.9516H22.9839V11.0323H11.9516H8.27419C7.76671 11.0323 7.35484 10.6195 7.35484 10.1129ZM11.9516 12.871H22.9839V14.7097H13.7903H11.9516C11.4441 14.7097 11.0323 14.2969 11.0323 13.7903C11.0323 13.2838 11.4441 12.871 11.9516 12.871ZM35.3593 17.3059C34.2993 18.0129 33.0646 18.3871 31.7895 18.3871H13.7903C13.2828 18.3871 12.871 17.9743 12.871 17.4677C12.871 16.9612 13.2828 16.5484 13.7903 16.5484H23.2137C23.4114 17.1313 23.7249 17.6709 24.1726 18.1186L25.4726 16.8178C25.0533 16.3985 24.8226 15.8414 24.8226 15.2484V8.65481C24.8226 8.06182 25.0533 7.50469 25.4726 7.08547L24.1726 5.78458C23.7249 6.23231 23.4114 6.77197 23.2137 7.35484H11.9516C11.4441 7.35484 11.0323 6.94205 11.0323 6.43548C11.0323 5.92892 11.4441 5.51613 11.9516 5.51613H19.3065H26.2807L27.1531 6.38952C28.3695 7.6049 29.9857 8.27419 31.704 8.27419H33.0968V6.43548H31.704C30.4766 6.43548 29.3219 5.95742 28.4531 5.08955L27.0419 3.67742H26.6613H19.3065C18.2924 3.67742 17.4677 2.85276 17.4677 1.83871H31.7895C33.0646 1.83871 34.2984 2.21289 35.3593 2.91987L38.6129 5.08863V15.1372L35.3593 17.3059ZM40.4516 16.5484V3.67742C40.4516 3.17085 40.8635 2.75806 41.371 2.75806H45.0484C45.5559 2.75806 45.9677 3.17085 45.9677 3.67742V16.5484C45.9677 17.055 45.5559 17.4677 45.0484 17.4677H41.371C40.8635 17.4677 40.4516 17.055 40.4516 16.5484Z" fill="#B3B3B3"/>
<path d="M14.7096 40.4516C15.2171 40.4516 15.6289 40.8635 15.6289 41.3709H17.4676C17.4676 39.8503 16.2302 38.6129 14.7096 38.6129V36.7742H12.8709V38.6129H10.1128V41.3709C10.1128 42.8916 11.3502 44.129 12.8709 44.129H14.7096C15.2171 44.129 15.6289 44.5409 15.6289 45.0484V45.9677H12.8709C12.3634 45.9677 11.9515 45.5558 11.9515 45.0484H10.1128C10.1128 46.569 11.3502 47.8064 12.8709 47.8064V49.6451H14.7096V47.8064H17.4676V45.0484C17.4676 43.5278 16.2302 42.2903 14.7096 42.2903H12.8709C12.3634 42.2903 11.9515 41.8784 11.9515 41.3709V40.4516H14.7096Z" fill="#B3B3B3"/>
</svg>
