<svg width="26" height="21" viewBox="0 0 26 21" fill="none" xmlns="http://www.w3.org/2000/svg">
<path d="M0 13.9381C0 11.2124 0.685851 8.61062 2.05755 6.13275C3.49161 3.65487 5.33094 1.61062 7.57554 0L11.036 2.78761C9.53957 3.77876 8.19904 5.11062 7.01439 6.78319C5.82974 8.39381 5.17506 9.94248 5.05036 11.4292H5.51799C5.82974 11.3673 6.07914 11.3363 6.26619 11.3363C7.57554 11.3363 8.63549 11.8009 9.44604 12.7301C10.3189 13.5973 10.7554 14.7124 10.7554 16.0752C10.7554 17.4381 10.2566 18.615 9.25899 19.6062C8.32374 20.5354 7.17026 21 5.79856 21C4.17746 21 2.80576 20.3805 1.68345 19.1416C0.561151 17.8407 0 16.1062 0 13.9381ZM14.964 13.9381C14.964 11.2124 15.6499 8.61062 17.0216 6.13275C18.4556 3.65487 20.295 1.61062 22.5396 0L26 2.78761C24.5036 3.77876 23.1631 5.11062 21.9784 6.78319C20.8561 8.39381 20.2014 9.94248 20.0144 11.4292H20.482C20.7938 11.3673 21.0432 11.3363 21.2302 11.3363C22.5396 11.3363 23.6307 11.8009 24.5036 12.7301C25.3765 13.5973 25.813 14.7124 25.813 16.0752C25.813 17.4381 25.3141 18.615 24.3165 19.6062C23.3189 20.5354 22.1343 21 20.7626 21C19.1415 21 17.7698 20.3805 16.6475 19.1416C15.5252 17.8407 14.964 16.1062 14.964 13.9381Z" fill="#E9E9E9"/>
</svg>
