<svg width="43" height="56" viewBox="0 0 43 56" fill="none" xmlns="http://www.w3.org/2000/svg">
<path d="M38.9952 39.2909C38.8586 39.2908 38.7244 39.2555 38.6054 39.1885C38.4863 39.1215 38.3866 39.025 38.3157 38.9082C38.2447 38.7915 38.205 38.6585 38.2004 38.522C38.1958 38.3854 38.2263 38.25 38.2892 38.1288C38.6498 37.4315 38.9618 36.766 39.2444 36.0958C39.3289 35.906 39.4842 35.7569 39.6772 35.6801C39.8702 35.6033 40.0855 35.6049 40.2773 35.6847C40.469 35.7645 40.622 35.9161 40.7036 36.1071C40.7851 36.2981 40.7888 36.5134 40.7138 36.7071C40.4185 37.4187 40.0889 38.1232 39.7069 38.8611C39.6394 38.9913 39.5372 39.1004 39.4116 39.1763C39.286 39.2521 39.1419 39.2918 38.9952 39.2909Z" fill="#B3B3B3"/>
<path d="M21.5 55.7202C21.3753 55.72 21.2524 55.6909 21.141 55.635C7.9035 48.9542 0 37.7473 0 25.6552V9.55212C4.02132e-05 9.44078 0.0234402 9.33068 0.0686873 9.22894C0.113934 9.1272 0.180022 9.03609 0.26268 8.96149C0.345587 8.88721 0.443015 8.83095 0.548796 8.79629C0.654576 8.76162 0.766403 8.7493 0.877194 8.7601C8.74885 9.57043 15.483 6.71756 20.8903 0.283483C20.9642 0.195644 21.0563 0.124838 21.1601 0.0759247C21.264 0.027011 21.3772 0.00114685 21.492 0.000106635C21.607 -0.00178911 21.721 0.0216127 21.826 0.0686557C21.931 0.115699 22.0243 0.185233 22.0994 0.272339C26.8491 5.70505 33.6191 8.55871 42.2223 8.75612C42.4302 8.76091 42.628 8.84688 42.7734 8.99564C42.9187 9.1444 43.0001 9.34414 43 9.55212V22.6623C43 22.8734 42.9161 23.0758 42.7669 23.2251C42.6176 23.3744 42.4151 23.4583 42.204 23.4583C41.9929 23.4583 41.7904 23.3744 41.6411 23.2251C41.4919 23.0758 41.408 22.8734 41.408 22.6623V10.3242C33.0635 9.97798 26.3787 7.18004 21.5143 1.99727C16.0538 8.1424 9.35859 10.9698 1.592 10.4206V25.6552C1.592 37.0253 9.02586 47.6082 21.5 54.0303C26.8797 51.3401 31.6016 47.4991 35.3305 42.7796C35.394 42.6966 35.4733 42.6268 35.5637 42.5744C35.6542 42.522 35.7541 42.4879 35.8577 42.4741C35.9613 42.4602 36.0667 42.467 36.1677 42.4938C36.2687 42.5207 36.3635 42.5673 36.4465 42.6308C36.5296 42.6943 36.5993 42.7735 36.6517 42.8639C36.7042 42.9544 36.7382 43.0543 36.7521 43.1579C36.7659 43.2616 36.7592 43.3669 36.7323 43.4679C36.7054 43.569 36.6589 43.6637 36.5954 43.7467C32.6337 48.7613 27.598 52.8237 21.859 55.635C21.7476 55.6909 21.6246 55.72 21.5 55.7202Z" fill="#B3B3B3"/>
<path d="M41.6556 31.8562C41.6021 31.8565 41.5488 31.8512 41.4964 31.8402C41.2894 31.7989 41.1073 31.6771 40.9902 31.5016C40.873 31.326 40.8303 31.1111 40.8715 30.9041C41.0307 30.1312 41.1517 29.3416 41.2441 28.5559C41.2544 28.4506 41.2855 28.3484 41.3358 28.2552C41.3861 28.1621 41.4544 28.0799 41.5368 28.0135C41.6192 27.9471 41.714 27.8978 41.8157 27.8685C41.9174 27.8391 42.0239 27.8304 42.1291 27.8427C42.2342 27.855 42.3358 27.8882 42.4279 27.9403C42.5201 27.9923 42.6009 28.0623 42.6657 28.1459C42.7305 28.2296 42.7779 28.3254 42.8053 28.4276C42.8326 28.5299 42.8393 28.6365 42.8249 28.7414C42.7278 29.5692 42.5957 30.4019 42.4325 31.2162C42.3966 31.396 42.2996 31.5579 42.158 31.6745C42.0165 31.7912 41.839 31.8553 41.6556 31.8562Z" fill="#B3B3B3"/>
<path d="M21.4999 50.5097C21.3632 50.5097 21.2288 50.4743 21.1099 50.407C10.7204 44.5675 4.5188 35.3498 4.5188 25.7484V14.1197C4.51859 13.9146 4.59752 13.7174 4.73914 13.5691C4.88076 13.4208 5.07414 13.3329 5.27898 13.3237C11.1824 13.0676 16.7906 10.6703 21.0549 6.57993C21.1974 6.44778 21.3833 6.37232 21.5776 6.36777C21.7719 6.36323 21.9611 6.42991 22.1096 6.55525C26.5725 10.2118 32.0298 12.4454 37.7757 12.967C37.9699 12.9891 38.1492 13.0819 38.2794 13.2277C38.4097 13.3734 38.4817 13.562 38.4818 13.7575V25.7476C38.4818 35.349 32.2794 44.5675 21.8899 50.407C21.771 50.4743 21.6366 50.5097 21.4999 50.5097ZM6.1108 14.8703V25.7484C6.1108 34.6469 11.8547 43.235 21.4999 48.7951C31.1458 43.2334 36.8898 34.6438 36.8898 25.7453V14.4611C31.321 13.8295 26.036 11.6678 21.6209 8.21571C17.3445 12.1122 11.8813 14.4562 6.1108 14.8703Z" fill="#B3B3B3"/>
<path d="M18.0224 34.9542C17.8113 34.9541 17.6089 34.8702 17.4596 34.7209L12.9774 30.2387C12.8324 30.0885 12.7521 29.8875 12.7539 29.6787C12.7557 29.47 12.8395 29.2704 12.9871 29.1228C13.1346 28.9752 13.3343 28.8915 13.543 28.8897C13.7517 28.8879 13.9528 28.9681 14.1029 29.1131L18.0224 33.0342L28.8974 22.1569C28.9713 22.0829 29.059 22.0242 29.1556 21.9842C29.2522 21.9441 29.3557 21.9235 29.4603 21.9235C29.5648 21.9234 29.6684 21.944 29.765 21.984C29.8616 22.0239 29.9494 22.0825 30.0233 22.1565C30.0973 22.2304 30.156 22.3181 30.196 22.4147C30.2361 22.5113 30.2567 22.6148 30.2567 22.7193C30.2568 22.8239 30.2362 22.9274 30.1962 23.024C30.1562 23.1207 30.0976 23.2084 30.0237 23.2824L18.5852 34.7209C18.4359 34.8702 18.2335 34.9541 18.0224 34.9542Z" fill="#B3B3B3"/>
</svg>
