<svg width="91" height="110" viewBox="0 0 91 110" fill="none" xmlns="http://www.w3.org/2000/svg">
<path d="M9.10017 29.1204H18.1996C19.2052 29.1204 20.02 28.3047 20.02 27.3C20.02 26.2952 19.2052 25.4796 18.1996 25.4796H9.10017C8.09458 25.4796 7.27979 26.2952 7.27979 27.3C7.27979 28.3047 8.09458 29.1204 9.10017 29.1204Z" fill="#0A86A6"/>
<path d="M32.7604 29.1204H70.9802C71.9849 29.1204 72.7997 28.3047 72.7997 27.3C72.7997 26.2952 71.9849 25.4796 70.9802 25.4796H32.7604C31.7549 25.4796 30.9401 26.2952 30.9401 27.3C30.9401 28.3047 31.7549 29.1204 32.7604 29.1204Z" fill="#0A86A6"/>
<path d="M32.7604 36.4H70.9802C71.9849 36.4 72.7997 35.5852 72.7997 34.5796C72.7997 33.5749 71.9849 32.7601 70.9802 32.7601H32.7604C31.7549 32.7601 30.9401 33.5749 30.9401 34.5796C30.9401 35.5852 31.7549 36.4 32.7604 36.4Z" fill="#0A86A6"/>
<path d="M9.10017 43.6803H18.1996C19.2052 43.6803 20.02 42.8655 20.02 41.8599C20.02 40.8551 19.2052 40.0403 18.1996 40.0403H9.10017C8.09458 40.0403 7.27979 40.8551 7.27979 41.8599C7.27979 42.8655 8.09458 43.6803 9.10017 43.6803Z" fill="#0A86A6"/>
<path d="M32.7604 43.6803H70.9802C71.9849 43.6803 72.7997 42.8655 72.7997 41.8599C72.7997 40.8551 71.9849 40.0403 70.9802 40.0403H32.7604C31.7549 40.0403 30.9401 40.8551 30.9401 41.8599C30.9401 42.8655 31.7549 43.6803 32.7604 43.6803Z" fill="#0A86A6"/>
<path d="M32.7604 50.96H70.9802C71.9849 50.96 72.7997 50.1452 72.7997 49.1396C72.7997 48.1349 71.9849 47.3201 70.9802 47.3201H32.7604C31.7549 47.3201 30.9401 48.1349 30.9401 49.1396C30.9401 50.1452 31.7549 50.96 32.7604 50.96Z" fill="#0A86A6"/>
<path d="M9.10017 58.2398H18.1996C19.2052 58.2398 20.02 57.425 20.02 56.4203C20.02 55.4147 19.2052 54.5999 18.1996 54.5999H9.10017C8.09458 54.5999 7.27979 55.4147 7.27979 56.4203C7.27979 57.425 8.09458 58.2398 9.10017 58.2398Z" fill="#0A86A6"/>
<path d="M32.7604 58.2398H70.9802C71.9849 58.2398 72.7997 57.425 72.7997 56.4203C72.7997 55.4147 71.9849 54.5999 70.9802 54.5999H32.7604C31.7549 54.5999 30.9401 55.4147 30.9401 56.4203C30.9401 57.425 31.7549 58.2398 32.7604 58.2398Z" fill="#0A86A6"/>
<path d="M32.7604 65.5196H70.9802C71.9849 65.5196 72.7997 64.7048 72.7997 63.7C72.7997 62.6944 71.9849 61.8796 70.9802 61.8796H32.7604C31.7549 61.8796 30.9401 62.6944 30.9401 63.7C30.9401 64.7048 31.7549 65.5196 32.7604 65.5196Z" fill="#0A86A6"/>
<path d="M41.8599 94.64H34.58C33.5753 94.64 32.7605 95.4548 32.7605 96.4596C32.7605 97.4651 33.5753 98.2799 34.58 98.2799H38.22V100.099C38.22 101.105 39.0348 101.92 40.0404 101.92C41.0451 101.92 41.8599 101.105 41.8599 100.099V98.2799C44.8758 98.2799 47.3202 95.8356 47.3202 92.8196C47.3202 89.8045 44.8758 87.3601 41.8599 87.3601H38.22C37.2152 87.3601 36.4004 86.5453 36.4004 85.5398C36.4004 84.535 37.2152 83.7202 38.22 83.7202H45.4998C46.5054 83.7202 47.3202 82.9046 47.3202 81.8998C47.3202 80.8951 46.5054 80.0794 45.4998 80.0794H41.8599V78.2599C41.8599 77.2543 41.0451 76.4395 40.0404 76.4395C39.0348 76.4395 38.22 77.2543 38.22 78.2599V80.0794C35.2049 80.0794 32.7605 82.5247 32.7605 85.5398C32.7605 88.5557 35.2049 91.0001 38.22 91.0001H41.8599C42.8655 91.0001 43.6803 91.8149 43.6803 92.8196C43.6803 93.8252 42.8655 94.64 41.8599 94.64Z" fill="#0A86A6"/>
<path d="M5.46032 109.2H74.6199C77.635 109.2 80.0794 106.755 80.0794 103.739V18.1997H87.3601C89.3704 18.1997 91 16.5701 91 14.5597V9.10025C90.9933 4.07649 86.9227 0.0058319 81.8997 0H5.46032C2.4444 0 0 2.4444 0 5.46032V103.739C0 106.755 2.4444 109.2 5.46032 109.2ZM40.0401 72.7995C46.6651 72.7995 52.6378 76.791 55.173 82.9112C57.7082 89.0322 56.3069 96.0771 51.6222 100.762C46.9376 105.446 39.8926 106.848 33.7717 104.313C27.6507 101.777 23.66 95.8047 23.66 89.1796C23.67 80.1377 30.9973 72.8095 40.0401 72.7995ZM81.8997 3.63993C84.9148 3.63993 87.3601 6.08433 87.3601 9.10025V14.5597H14.5597V9.10025C14.5531 7.12407 13.8974 5.20621 12.6927 3.63993H81.8997ZM3.63993 5.46032C3.63993 4.45473 4.45473 3.63993 5.46032 3.63993C8.4754 3.63993 10.9198 6.08433 10.9198 9.10025V14.5597C10.9198 16.5701 12.5494 18.1997 14.5597 18.1997H76.4394V103.739C76.4394 104.745 75.6246 105.56 74.6199 105.56H51.5148C56.0936 102.365 59.1262 97.3993 59.8777 91.8673C60.6292 86.3353 59.0321 80.7409 55.4713 76.4394H70.9799C71.9847 76.4394 72.7995 75.6246 72.7995 74.6199C72.7995 73.6143 71.9847 72.7995 70.9799 72.7995H51.5148C44.6365 67.9507 35.4521 67.9507 28.5738 72.7995H9.10025C8.09467 72.7995 7.27987 73.6143 7.27987 74.6199C7.27987 75.6246 8.09467 76.4394 9.10025 76.4394H24.6081C21.049 80.7417 19.4527 86.337 20.2058 91.869C20.9598 97.4018 23.9941 102.366 28.5738 105.56H5.46032C4.45473 105.56 3.63993 104.745 3.63993 103.739V5.46032Z" fill="#0A86A6"/>
</svg>
