<svg width="59" height="59" viewBox="0 0 59 59" fill="none" xmlns="http://www.w3.org/2000/svg">
<path d="M29.5 59C13.2337 59 0 45.7663 0 29.5C0 13.2337 13.2337 0 29.5 0C45.7663 0 59 13.2337 59 29.5C59 45.7663 45.7663 59 29.5 59ZM29.5 1.96667C14.3183 1.96667 1.96667 14.3183 1.96667 29.5C1.96667 44.6817 14.3183 57.0333 29.5 57.0333C44.6817 57.0333 57.0333 44.6817 57.0333 29.5C57.0333 14.3183 44.6817 1.96667 29.5 1.96667ZM29.5 54.0833C23.9442 54.0833 18.6942 52.2612 14.3183 48.8146C14.0971 48.6406 13.9614 48.381 13.9456 48.0998C13.9289 47.8195 14.0332 47.5452 14.2318 47.3465L47.3465 14.2318C47.5452 14.0331 47.8166 13.9299 48.0998 13.9456C48.38 13.9624 48.6406 14.0981 48.8146 14.3183C52.2612 18.6942 54.0833 23.9442 54.0833 29.5C54.0833 43.0553 43.0553 54.0833 29.5 54.0833ZM16.4227 47.9355C20.2616 50.6751 24.7593 52.1167 29.499 52.1167C41.9697 52.1167 52.1157 41.9706 52.1157 29.5C52.1157 24.7603 50.6741 20.2626 47.9346 16.4236L16.4227 47.9355ZM11.3959 45.6021C11.3811 45.6021 11.3673 45.6021 11.3526 45.6011C11.0773 45.5883 10.8196 45.4615 10.6416 45.25C6.9502 40.8368 4.91667 35.2437 4.91667 29.5C4.91667 15.9448 15.9448 4.91667 29.5 4.91667C35.2427 4.91667 40.8359 6.9502 45.2501 10.6416C45.4615 10.8186 45.5893 11.0763 45.6011 11.3526C45.6129 11.6279 45.5097 11.8964 45.314 12.0911L12.0911 45.314C11.9062 45.4988 11.6564 45.6021 11.3959 45.6021ZM29.5 6.88333C17.0294 6.88333 6.88333 17.0294 6.88333 29.5C6.88333 34.4235 8.50878 39.2281 11.4794 43.1447L43.1457 11.4785C39.2271 8.50878 34.4226 6.88333 29.5 6.88333Z" fill="#B3B3B3"/>
</svg>
